<?xml version="1.0" encoding="utf-8"?>
<!-- Generator: Adobe Illustrator 24.2.3, SVG Export Plug-In . SVG Version: 6.00 Build 0)  -->
<svg version="1.1" id="Layer_1" xmlns="http://www.w3.org/2000/svg" xmlns:xlink="http://www.w3.org/1999/xlink" x="0px" y="0px"
	 viewBox="0 0 469 107.2" style="enable-background:new 0 0 469 107.2;" xml:space="preserve">
<style type="text/css">
	.st0{display:none;fill:#00E9CC;}
	.st1{fill:#FFFFFF;}
	.st2{fill:none;}
</style>
<rect class="st0" width="476" height="107.2"/>
<g>
	<rect y="76.3" class="st1" width="88" height="26.1"/>
	<rect y="6.7" class="st1" width="60.1" height="26.1"/>
	<rect y="41.5" class="st1" width="88" height="26.1"/>
	<g>
		<g>
			<path class="st1" d="M144.1,11.1h-9.6V7.6h23.4v3.5h-9.6v28.1h-4.1L144.1,11.1L144.1,11.1z"/>
			<path class="st1" d="M160.2,28.6c0.1,5.6,3.7,7.9,7.8,7.9c3,0,4.7-0.5,6.3-1.2l0.7,3c-1.5,0.7-3.9,1.4-7.5,1.4
				c-7,0-11.1-4.6-11.1-11.4s4-12.2,10.6-12.2c7.4,0,9.4,6.5,9.4,10.7c0,0.8-0.1,1.5-0.1,1.9h-16.1V28.6z M172.3,25.7
				c0-2.6-1.1-6.7-5.7-6.7c-4.2,0-6,3.8-6.3,6.7H172.3z"/>
			<path class="st1" d="M193.9,39.2l-0.3-2.9h-0.1c-1.3,1.8-3.7,3.4-6.9,3.4c-4.6,0-6.9-3.2-6.9-6.5c0-5.5,4.9-8.5,13.6-8.4v-0.5
				c0-1.9-0.5-5.2-5.2-5.2c-2.1,0-4.3,0.7-5.9,1.7l-0.9-2.7c1.9-1.2,4.6-2,7.4-2c6.9,0,8.6,4.7,8.6,9.3v8.5c0,2,0.1,3.9,0.4,5.4
				h-3.8V39.2z M193.3,27.6c-4.5-0.1-9.6,0.7-9.6,5.1c0,2.7,1.8,3.9,3.9,3.9c3,0,4.8-1.9,5.5-3.8c0.1-0.4,0.2-0.9,0.2-1.3
				L193.3,27.6L193.3,27.6z"/>
			<path class="st1" d="M204,6h4.1v33.3H204V6z"/>
			<path class="st1" d="M219.6,10.2c0,1.4-1,2.5-2.6,2.5c-1.5,0-2.5-1.1-2.5-2.5c0-1.5,1.1-2.6,2.6-2.6S219.6,8.7,219.6,10.2z
				 M215,39.2V16.5h4.1v22.7H215z"/>
			<path class="st1" d="M244.9,33c0,2.3,0,4.4,0.2,6.2h-3.7l-0.2-3.7h-0.1c-1.1,1.8-3.5,4.2-7.5,4.2c-3.6,0-7.8-2-7.8-9.9V16.5h4.1
				v12.6c0,4.3,1.3,7.2,5.1,7.2c2.8,0,4.7-1.9,5.4-3.7c0.2-0.6,0.4-1.4,0.4-2.1v-14h4.1V33z"/>
			<path class="st1" d="M251.8,22.7c0-2.3,0-4.3-0.2-6.1h3.6l0.2,3.7h0.1c1.3-2.2,3.4-4.2,7.1-4.2c3.1,0,5.4,1.9,6.4,4.5h0.1
				c0.7-1.3,1.6-2.2,2.5-3c1.4-1,2.9-1.6,5-1.6c3,0,7.4,2,7.4,9.8v13.4h-4V26.4c0-4.4-1.6-7-4.9-7c-2.3,0-4.2,1.7-4.9,3.7
				c-0.2,0.6-0.3,1.3-0.3,2.1v14h-4V25.6c0-3.6-1.6-6.2-4.7-6.2c-2.6,0-4.5,2.1-5.1,4.1c-0.2,0.6-0.3,1.3-0.3,2v13.7h-4V22.7z"/>
		</g>
	</g>
</g>
<g>
	<rect x="133.2" y="59.4" class="st2" width="346" height="40"/>
	<path class="st1" d="M151.2,72.9h-12v21.9h-2.6V59.4h14.6V72.9z M148.7,61.5h-9.4V65h9.4V61.5z M139.2,70.8h9.4V67h-9.4V70.8z
		 M164.2,84.8h-5.7V94H156v-9.2h-6.1c-0.3,2.6-1.6,7-5.5,9.6c-0.4-0.5-1.2-1.3-1.8-1.7c3.5-2.2,4.7-5.6,4.9-7.9h-5.2v-2.3h5.3v-4.7
		h-4.5v-2.3h20.2v2.3h-4.8v4.7h5.7V84.8z M150,82.5h6v-4.7h-6V82.5z M170,59.4v31.8c0,3.4-1.5,3.6-7.8,3.6c-0.1-0.8-0.5-2-0.9-2.8
		c1.4,0,2.7,0.1,3.7,0.1c2.1,0,2.4,0,2.4-0.9V72.9H155V59.4H170z M167.4,61.5h-9.8V65h9.8V61.5z M157.6,70.8h9.8V67h-9.8V70.8z"/>
	<path class="st1" d="M206.6,59.8c-0.1,0.2-0.4,0.3-0.8,0.2c-1.5,1.4-3.8,3.3-5.7,4.7c0.8,1.2,1.8,2.3,2.8,3.4
		c2-1.6,4.6-3.8,6.1-5.4l2.4,1.8c-0.2,0.2-0.5,0.2-0.8,0.2c-1.5,1.4-4.1,3.4-6.1,4.9c2.3,2.1,5,3.8,7.8,4.9
		c-0.6,0.6-1.4,1.6-1.8,2.3c-2.1-0.9-4-2.1-5.9-3.6v1.5h-5v6.4h9.8v2.5h-9.8v6.9c0,1.3,0.2,1.5,1.7,1.5h5c1.3,0,1.5-0.8,1.7-5.2
		c0.6,0.5,1.7,0.9,2.4,1.1c-0.3,5.2-1,6.6-3.9,6.6h-5.5c-3.3,0-4.1-0.8-4.1-4v-6.9H189c-0.6,4.4-3.1,8.6-11.1,11.4
		c-0.3-0.6-1.1-1.6-1.7-2.1c7.1-2.4,9.4-5.8,10.1-9.3H177v-2.5h9.6v-6.4H182v-1.3c-1.9,1.5-4,2.7-6,3.7c-0.4-0.6-1.1-1.5-1.7-2
		c2.8-1.2,5.8-3.1,8.3-5.6c-1.3-1.3-3.4-3.1-5.1-4.4l1.7-1.4c1.7,1.2,3.8,2.9,5.1,4.2c1.6-1.8,3-3.8,4.1-6h-10.6v-2.4h12l0.5-0.2
		c1,0.6,1.5,0.8,1.9,1c0,0.2-0.2,0.4-0.4,0.4c-1.7,4.5-4.7,8.4-8.2,11.5h19.7c-4-3.6-7.3-8.3-9.4-13.7l2.4-0.7
		c0.7,1.8,1.6,3.6,2.6,5.2c1.8-1.5,4-3.5,5.3-5L206.6,59.8z M196.7,81.1v-6.4h-7.5v6.4H196.7z"/>
	<path class="st1" d="M251.4,73.3h-15.6c-2.2,1.6-4.5,3.1-6.8,4.4h16.8v16.9h-2.7v-1.2h-16.5v1.4H224V80.4c-2.6,1.3-5.2,2.4-7.9,3.5
		c-0.4-0.6-1-1.6-1.6-2.1c5.9-2.2,11.7-5,17-8.5H215v-2.4h14.3v-5.4h-10.5v-2.4h10.5v-5.6l3.4,0.2c0,0.3-0.3,0.5-0.8,0.6v4.8h10.4
		v1.4c1.7-1.7,3.3-3.5,4.7-5.3l2.8,1.6c-0.1,0.2-0.4,0.2-0.7,0.2c-0.1,0-0.2,0-0.4,0c-2.8,3.6-6.2,6.9-9.8,9.9h12.4V73.3z
		 M243.1,84.3v-4.3h-16.5v4.3H243.1z M226.6,91.1h16.5v-4.5h-16.5V91.1z M232,70.9h2.9c2.3-1.7,4.5-3.5,6.5-5.4H232V70.9z"/>
	<path class="st1" d="M279.7,80.1c-4.1-2.2-9.7-4.8-14-6.5v20h-3V58.7l4,0.2c0,0.4-0.4,0.7-1,0.8v11.8l0.6-0.9
		c4.7,1.7,10.9,4.5,15,6.7L279.7,80.1z M275.5,61.2c1.8,1.5,4.2,4,5.5,5.9l-1.5,1.2c-1.2-1.7-3.6-4.4-5.4-5.8L275.5,61.2z
		 M280.8,57.8c1.9,1.6,4.3,4.1,5.5,5.8l-1.4,1.2c-1.2-1.7-3.7-4.4-5.5-5.8L280.8,57.8z"/>
	<path class="st1" d="M308.7,80.7l1.4,12.6l-2.9,0.3l-1.4-12.5l-15,1.9l-0.4-2.6l15.1-1.9l-1-9L292,71.1l-0.4-2.7l12.6-1.6l-0.9-7.9
		l3.9-0.2c0,0.4-0.4,0.7-0.9,0.9l0.7,6.8l12.2-1.6l0.3,2.7l-12.2,1.6l1,9l15-1.9l0.4,2.6L308.7,80.7z"/>
	<path class="st1" d="M356.4,88.1v2.3h-27.3v-2.3h16.3c0.6-4,1.7-12,2.1-16.1h-15.2v-2.3h16l0.5-0.2l2,1c0,0.2-0.2,0.3-0.5,0.4
		c-0.5,4.2-1.8,13-2.5,17.2H356.4z"/>
	<path class="st1" d="M368.7,67.3c3.8,1.6,7.7,3.6,11.4,5.8c2.6-3.8,5.2-8.9,7.2-14l3.9,1.6c-0.2,0.4-0.7,0.6-1.4,0.5
		c-1.8,4.2-4.4,9.3-7.1,13.4c3.1,1.9,6.3,4.1,8.7,6.2l-1.9,2.5c-2.2-1.9-5.2-4.1-8.5-6.2c-4.1,5.9-10.1,11.8-16.9,16.4
		c-0.5-0.6-1.6-1.6-2.3-2c6.7-4.3,12.8-10.3,16.8-15.8c-3.6-2.2-7.5-4.2-11.3-5.9L368.7,67.3z"/>
	<path class="st1" d="M400.6,62c4.2,1.3,9,3.4,11.9,5.4l-1.5,2.5c-2.9-2-7.6-4.2-11.7-5.6L400.6,62z M400.4,89.7
		c14.2-4.4,23.6-12.4,28.4-23.4c0.8,0.7,1.8,1.2,2.6,1.6c-5,11-14.8,19.5-28.3,24c0,0.4-0.3,0.8-0.6,0.9L400.4,89.7z"/>
	<path class="st1" d="M459.3,80c-4.1-2.2-9.7-4.8-14-6.5v20h-3V58.7l4,0.2c0,0.4-0.4,0.7-1,0.8v11.7l0.6-0.8
		c4.7,1.7,10.9,4.5,15,6.7L459.3,80z"/>
</g>
</svg>
